<?xml version="1.0" encoding="utf-8"?>
<!-- Generator: Adobe Illustrator 22.0.1, SVG Export Plug-In . SVG Version: 6.00 Build 0)  -->
<svg version="1.1" id="Слой_1" xmlns="http://www.w3.org/2000/svg" xmlns:xlink="http://www.w3.org/1999/xlink" x="0px" y="0px"
	 viewBox="0 0 425.3 425.8" style="enable-background:new 0 0 425.3 425.8;" xml:space="preserve">
<style type="text/css">
	.st0{fill:#172625;}
</style>
<path class="st0" d="M425.4,277.8c-7,21-17.9,40-30.4,58.1c-7.2,10.4-16.4,19-25.3,27.9c-27.4,27.3-60.1,45.1-97.4,54.7
	c-23.4,6-47.2,8-71.4,6c-43.9-3.7-83.2-19.1-117.6-46.7c-36.7-29.4-61.8-66.8-74.9-112c-4.5-15.6-7-31.6-7.9-47.8
	c0-0.8-0.2-1.6-0.4-2.3c0-6.2,0-12.4,0-18.7c0.2-2.1,0.4-4.1,0.6-6.2C2.4,169.5,7.3,148.9,15,129C34.8,78.1,68.9,40,117,14.3
	c10.1-5.4,21-9.5,31.5-14.2c0.9,0,1.7,0,2.6,0c3.7,3.5,4,5.1,0.8,9.2c-2.9,3.7-6,7.2-9.3,10.6c-25.1,26-40.8,57-48.4,92.2
	c-3.4,16-3.5,32.2-2.8,48.4c3,69.4,48.2,129,105.4,156.5c17.5,8.4,35.9,14.2,55.2,16.2c17.9,1.8,36,2.5,53.9-0.3
	c36.4-5.6,68.3-20.7,95.5-45.7c4.3-4,8.6-7.9,13-11.8c0.8-0.7,1.7-1.3,2.6-1.9c3.9-2.5,5.4-2.2,8.2,1.3
	C425.4,275.8,425.4,276.8,425.4,277.8z M125.6,21.9C51.6,57.8-2.8,144.3,13.7,241.7c14.8,87.5,85.7,165.4,191.4,172.5
	c90.1,6.1,165.7-45.6,199.7-115c-25.7,20.3-53.7,34.7-85.3,41.7c-31.7,7.1-63.4,6-94.6-2.6s-58.6-24.4-82.2-46.6
	c-30.6-28.8-50.5-63.8-58.5-105C72.4,125.6,87.7,70.9,125.6,21.9z"/>
</svg>
